<?xml version="1.0" standalone="no"?>
<!DOCTYPE svg PUBLIC "-//W3C//DTD SVG 20010904//EN"
 "http://www.w3.org/TR/2001/REC-SVG-20010904/DTD/svg10.dtd">
<svg version="1.0" xmlns="http://www.w3.org/2000/svg"
 width="512.000000pt" height="512.000000pt" viewBox="0 0 512.000000 512.000000"
 preserveAspectRatio="xMidYMid meet">
<metadata>
Created by potrace 1.11, written by Peter Selinger 2001-2013
</metadata>
<g transform="translate(0.000000,512.000000) scale(0.100000,-0.100000)"
fill="#000000" stroke="none">
<path d="M0 2560 l0 -2560 2560 0 2560 0 0 2560 0 2560 -2560 0 -2560 0 0
-2560z m2693 1650 c102 -54 147 -191 97 -296 -37 -76 -42 -78 -213 -78 -161
-1 -207 6 -207 28 0 8 -6 16 -12 19 -7 2 -21 32 -32 64 -17 57 -18 62 -1 119
26 88 84 147 165 165 56 13 159 2 203 -21z m-43 -454 c19 -1 -36 -3 -123 -4
-87 -1 -156 1 -154 6 5 6 195 6 277 -2z m-429 -82 c51 -54 156 -119 224 -139
75 -22 163 -22 237 -1 67 20 181 93 222 143 l29 35 246 -4 c273 -5 298 -10
401 -77 100 -65 165 -150 201 -265 33 -106 45 -439 23 -666 -7 -80 -14 -149
-14 -155 -1 -5 -8 2 -16 18 -15 27 -45 35 -71 19 -7 -4 -18 -80 -28 -202 -9
-107 -23 -223 -32 -257 -15 -55 -19 -61 -33 -49 -11 10 -33 11 -95 4 -161 -17
-247 -17 -331 1 -44 10 -90 14 -100 10 -31 -12 -92 -10 -96 4 -4 9 -96 13
-406 15 -359 3 -406 1 -437 -14 -25 -12 -46 -14 -73 -9 -51 10 -57 9 -137 -6
-79 -15 -224 -15 -335 -2 -58 8 -79 7 -90 -3 -14 -12 -18 1 -33 109 -15 101
-47 383 -47 409 0 9 -57 -1 -82 -13 -14 -8 -18 0 -25 59 -4 37 -8 191 -8 342
1 249 3 282 22 351 26 93 48 138 102 206 65 81 165 140 276 163 22 4 137 8
256 9 l215 1 35 -36z m-945 -921 c11 -42 -2 -174 -17 -184 -20 -12 -32 -11
-55 5 -16 12 -19 27 -19 96 0 73 2 84 22 100 29 23 61 15 69 -17z m2644 17
c26 -26 34 -61 27 -122 -6 -51 -29 -88 -53 -88 -42 0 -65 152 -31 203 21 32
31 33 57 7z m-1729 -817 c5 -15 9 -54 7 -87 -3 -54 -5 -61 -25 -64 -34 -5 -93
28 -114 62 -24 40 -24 57 2 90 17 22 28 26 70 26 44 0 51 -3 60 -27z m305 13
c16 -12 19 -27 19 -88 l0 -73 -105 0 -105 0 -3 50 c-2 27 -1 64 3 82 l6 32 72
4 c40 1 77 4 83 5 5 1 19 -4 30 -12z m324 -31 c6 -22 10 -61 8 -85 l-3 -45
-85 -3 c-125 -4 -130 -2 -130 59 0 27 6 64 13 82 l14 32 86 0 86 0 11 -40z
m252 10 c4 -5 8 -24 8 -41 0 -43 -54 -94 -108 -101 -37 -5 -42 -3 -47 19 -4
14 -3 51 2 84 l8 59 50 5 c47 5 70 -2 87 -25z"/>
<path d="M1860 3100 c-10 -7 18 -10 88 -10 66 0 101 4 97 10 -8 13 -165 13
-185 0z"/>
<path d="M3080 3100 c-10 -7 19 -10 90 -10 71 0 100 3 90 10 -8 5 -49 10 -90
10 -41 0 -82 -5 -90 -10z"/>
<path d="M1795 3070 c-18 -8 -17 -9 8 -9 15 -1 27 4 27 9 0 12 -8 12 -35 0z"/>
<path d="M2070 3071 c0 -5 11 -11 25 -13 28 -6 34 6 9 16 -22 8 -34 7 -34 -3z"/>
<path d="M3013 3073 c-23 -9 -14 -25 10 -18 31 10 45 25 22 24 -11 0 -26 -3
-32 -6z"/>
<path d="M3318 3063 c7 -3 16 -2 19 1 4 3 -2 6 -13 5 -11 0 -14 -3 -6 -6z"/>
<path d="M2135 3041 c-3 -5 2 -11 10 -15 8 -3 17 -1 20 3 3 5 -2 11 -10 15 -8
3 -17 1 -20 -3z"/>
<path d="M2965 3039 c-10 -14 -1 -21 19 -13 9 3 13 10 10 15 -7 12 -21 11 -29
-2z"/>
<path d="M1748 3033 c7 -3 16 -2 19 1 4 3 -2 6 -13 5 -11 0 -14 -3 -6 -6z"/>
<path d="M3368 3033 c6 -2 18 -2 25 0 6 3 1 5 -13 5 -14 0 -19 -2 -12 -5z"/>
<path d="M2934 3005 c-9 -22 1 -29 15 -11 8 10 9 16 1 21 -5 3 -13 -1 -16 -10z"/>
<path d="M2175 3000 c3 -5 8 -10 11 -10 2 0 4 5 4 10 0 6 -5 10 -11 10 -5 0
-7 -4 -4 -10z"/>
<path d="M1687 2983 c-4 -3 -7 -11 -7 -17 0 -6 5 -5 12 2 6 6 9 14 7 17 -3 3
-9 2 -12 -2z"/>
<path d="M2206 2965 c4 -8 8 -15 10 -15 2 0 4 7 4 15 0 8 -4 15 -10 15 -5 0
-7 -7 -4 -15z"/>
<path d="M2901 2953 c0 -25 1 -26 9 -8 12 27 12 35 0 35 -5 0 -10 -12 -9 -27z"/>
<path d="M1657 2944 c-4 -4 -7 -17 -7 -28 1 -19 1 -20 11 -3 11 19 8 43 -4 31z"/>
<path d="M2241 2914 c0 -11 3 -14 6 -6 3 7 2 16 -1 19 -3 4 -6 -2 -5 -13z"/>
<path d="M2872 2895 c0 -16 2 -22 5 -12 2 9 2 23 0 30 -3 6 -5 -1 -5 -18z"/>
<path d="M3492 2870 c0 -14 2 -19 5 -12 2 6 2 18 0 25 -3 6 -5 1 -5 -13z"/>
<path d="M1617 2799 c-8 -93 -7 -99 30 -177 33 -68 100 -135 167 -167 107 -51
265 -27 352 52 67 61 124 171 124 239 0 42 -6 45 -44 23 -30 -17 -35 -18 -46
-4 -15 19 -30 4 -30 -30 0 -42 -74 -155 -101 -155 -6 0 -17 -7 -25 -15 -26
-25 -156 -20 -204 7 -55 32 -110 120 -110 178 -1 40 -2 43 -14 28 -15 -21 -61
-24 -73 -5 -4 6 -10 35 -13 62 -5 48 -6 46 -13 -36z"/>
<path d="M3487 2776 c-4 -10 -19 -16 -42 -16 -37 0 -47 -11 -59 -70 -6 -28
-71 -110 -87 -110 -6 0 -17 -7 -25 -15 -11 -11 -37 -15 -94 -15 -57 0 -83 4
-94 15 -8 8 -19 15 -25 15 -9 0 -81 82 -81 93 0 3 -9 26 -20 52 -17 40 -22 45
-39 36 -14 -8 -22 -7 -31 4 -21 25 -50 19 -50 -11 0 -82 59 -198 128 -252 65
-51 126 -72 212 -72 110 0 187 37 256 124 52 66 74 114 76 170 2 48 -14 81
-25 52z"/>
<path d="M2548 2729 c-10 -5 -18 -17 -18 -24 0 -8 -4 -15 -9 -15 -4 0 -39 -60
-76 -132 -37 -73 -81 -157 -97 -186 -15 -29 -28 -68 -28 -87 0 -56 17 -60 249
-58 293 3 291 -2 137 288 -77 144 -94 174 -114 200 -23 28 -21 28 -44 14z m48
-84 c26 -74 43 -169 32 -182 -6 -8 -34 -13 -69 -13 l-59 0 0 53 c1 80 45 194
73 184 5 -1 15 -21 23 -42z"/>
</g>
</svg>
